<?xml version="1.0" encoding="utf-8"?>
<!-- Generator: Adobe Illustrator 27.5.0, SVG Export Plug-In . SVG Version: 6.00 Build 0)  -->
<svg version="1.1" xmlns="http://www.w3.org/2000/svg" xmlns:xlink="http://www.w3.org/1999/xlink" x="0px" y="0px"
	 viewBox="0 0 2122 2122" style="enable-background:new 0 0 2122 2122;" xml:space="preserve">
<g id="Capa_3">
</g>
<g id="Capa_4">
	<g>
		<path style="fill:#F8CFB4;" d="M1500.213,246.286c-3.278-5.031-9.919-4.821-13.235,0c-0.615,0.893-1.191,1.807-1.735,2.737
			c-4.927-17.074-13.518-32.954-25.015-43.927c-4.293-4.098-10.302-3.21-13.79,0.26c-9.208-13.117-19.651-25.419-32.24-35.282
			c-10.07-7.888-21.429-14.129-33.486-18.396c-6.497-2.299-13.301-4.039-20.173-4.115c-1.195-2.47-3.394-4.429-6.295-5.373
			c-12.074-3.931-24.361,8.036-29.813,17.609c-0.961,1.685-1.817,3.378-2.57,5.08c-0.115-3.565-0.377-7.14-0.902-10.741
			c-0.967-6.625-10.984-8.807-15.123-3.993c-20.773,24.179-16.611,63.186-1.453,90.642c-1.066,23.089-2.248,46.179-3.728,69.248
			c-3.942-1.403-8.902-0.711-11.385,2.369c-10.722,13.294-14.017,33.801-13.306,54.145c-2.326,1.053-4.303,3.115-5.423,5.867
			c-7.555,18.56-0.625,42.884,1.764,62.167c2.178,17.582,1.169,37.648,7.618,54.425c-0.299,1.6-0.6,3.199-0.907,4.797
			c-4.964,25.851-13.495,49.798-20.995,74.316c-8.1-7.261-16.909-14.105-26.501-20.483c-6.588-11.852-16.115-22.693-23.968-32.627
			c-14.767-18.682-30.677-39.239-52.017-50.555c-16.902-8.961-35.176,9.042-26.034,26.032c1.405,2.611,2.932,5.152,4.556,7.634
			c-12.66-9.027-27.102-16.111-40.631-21.77c-19.647-8.215-51.227-21.969-68.803-3.934c-5.578,5.725-6.03,13.648-2.653,20.543
			c0.75,1.529,1.633,2.933,2.63,4.232c-25.016-5.531-51.786-3.119-64.449,14.418c-4.367,6.047-2.37,13.948,2.086,19.26
			c-30.946,10.357-59.879,24.966-85.258,44.559c-3.808-0.304-7.655-0.461-11.54-0.461c-0.026,0-0.053,0-0.079,0
			c-7.944-26.933-17.629-52.911-23.054-81.163c-0.307-1.598-0.608-3.197-0.907-4.797c6.449-16.777,5.441-36.844,7.618-54.425
			c2.389-19.284,9.315-43.608,1.764-62.167c-1.121-2.752-3.099-4.813-5.425-5.867c0.711-20.344-2.582-40.851-13.304-54.145
			c-2.485-3.08-7.445-3.772-11.387-2.37c-1.479-23.069-2.661-46.158-3.727-69.248c15.156-27.457,19.316-66.463-1.457-90.642
			c-4.135-4.814-14.153-2.632-15.119,3.993c-0.526,3.601-0.788,7.176-0.904,10.74c-0.752-1.701-1.609-3.393-2.569-5.078
			c-5.455-9.573-17.738-21.54-29.813-17.609c-2.901,0.944-5.099,2.903-6.295,5.373c-6.872,0.077-13.676,1.816-20.173,4.115
			c-12.06,4.268-23.419,10.508-33.489,18.396c-12.589,9.863-23.032,22.165-32.238,35.282c-3.488-3.47-9.496-4.358-13.788-0.259
			c-11.499,10.973-20.09,26.852-25.016,43.926c-0.544-0.93-1.121-1.843-1.735-2.736c-3.32-4.821-9.961-5.031-13.235,0
			c-11.162,17.137-6.807,46.7,5.945,62.509c-11.82,44.169-14.753,90.752-8.126,136.006c2.513,17.161,6.39,34.101,11.528,50.651
			c-4.735,0.309-9.403,4.474-9.481,9.533c-0.464,30.4,22.002,58.498,47.699,73.19c17.812,28.211,39.636,53.893,64.756,75.851
			c0.909,0.795,1.824,1.588,2.745,2.38c-8.965,18.714-13.987,39.677-13.987,61.813c0,33.271,11.343,63.892,30.373,88.209
			c-0.409,2.249-0.795,4.505-1.167,6.761c-4.471,27.093-9.711,61.172-0.275,87.586c0.95,2.661,2.621,4.819,4.676,6.414
			c-0.056,1.239-0.11,2.476-0.163,3.709c-4.34,101.881-4.631,203.438-2.708,304.957c-1.323,1.899-2.66,3.796-4.028,5.679
			c-11.972,16.496-29.608,33.759-34.128,54.117c-2.438,10.984,6.944,21.309,18.299,18.299c1.45-0.385,2.876-0.838,4.276-1.353
			c-11.461,25.226-17.573,53.051-11.114,77.334c1.761,6.611,8.5,9.911,14.548,8.989c-1.456,6.25-2.693,12.644-3.684,19.253
			c-3.818,25.501-7.032,54.42,3.292,78.651c3.94,9.243,15.876,7.35,21.242,0.819c0.802,18.622,1.625,37.25,2.46,55.888
			c1.229,27.448,2.643,54.884,4.134,82.301c-21.987,10.475-34.586,38.527-41.374,60.357c-7.693,24.735-10.808,58.732,8.546,78.972
			c5.388,5.631,13.001,4.248,17.613-0.551c2.004,15.225,6.47,30.138,15.672,41.869c2.597,3.314,6.978,3.963,10.853,2.787
			c0.569,7.151,1.164,14.299,1.794,21.444c0,0,2.727,5.272,9.158,13.73c-0.328,0.168-0.627,0.377-0.891,0.631
			c-3.415,3.285-3.902,8.63-3.077,13.299c3.828,21.686,37.713,39.749,54.586,51.086c24.781,16.651,51.319,30.649,78.633,42.656
			c55.246,24.28,115.478,38.482,176.034,37.759c55.498-0.659,112.718-15.977,162.157-41.423c2.221-1.142,4.427-2.305,6.616-3.488
			c23.637-12.741,46.083-27.999,66.163-45.853c7.703-6.849,18.833-16.134,27.881-26.611c8.923-10.332,15.823-21.823,15.411-33.275
			c-0.039-1.08-0.141-2.163-0.317-3.24c-0.634-3.948-2.206-7.982-5.265-10.492c0.046-4.13-0.069-7.346-0.017-9.377
			c-3.723-9.611-6.683-19.982-9.178-30.567c-11.127-46.716-20.555-93.827-28.254-141.188c1.697,2.125,3.535,4.141,5.481,6.017
			c4.985,4.732,15.681,3.433,16.909-4.481c4.227-26.556-7.876-54.307-14.813-79.671c-0.543-1.986-1.083-3.976-1.591-5.963
			c-2.456-9.393-4.806-18.825-7.152-28.253h-0.039c-0.053-0.208-0.106-0.416-0.159-0.624c1.263,1.949,2.578,3.874,3.948,5.772
			c5.042,6.976,18.395,5.515,17.78-4.813c-1.898-32.02-10.843-62.762-16.594-94.187c-2.879-15.718-4.936-31.589-6.629-47.476
			c1.893-0.991,3.603-2.51,4.931-4.591c17.283-27.079,13.843-65.556,10.984-96.145c-0.789-8.448-1.865-16.839-3.255-25.181
			c3.119,2.204,6.547,3.984,10.326,5.229c5.289,1.741,10.945-2.037,12.463-7.078c6.658-22.097-7.343-47.151-13.062-68.266
			c-3.27-12.069-3.912-29.312-8.538-43.258c9.648-100.286,17.599-200.683,11.685-301.357c5.004-0.858,9.697-4.201,10.84-9.241
			c2.898-12.763,2.24-26.463-0.592-40.155c12.474-21.249,19.628-45.997,19.628-72.417c0-18.393-3.468-35.974-9.783-52.13
			c4.772-4.038,9.547-8.032,14.158-12.063c25.119-21.959,46.943-47.641,64.757-75.852c25.7-14.692,48.165-42.79,47.701-73.19
			c-0.078-5.059-4.746-9.224-9.482-9.533c5.138-16.551,9.015-33.49,11.529-50.651c6.627-45.254,3.694-91.838-8.126-136.006
			C1507.019,292.986,1511.371,263.422,1500.213,246.286z"/>
		<g>
			<path style="fill:#EAAB81;" d="M1451.314,369.477c-1.436-12.29-3.761-25.075-11.365-34.839
				c-7.601-9.764-22.022-15.27-32.784-9.167c-7.84,4.444-11.69,13.479-14.633,21.995c-23.902,69.189-23.154,143.353-33.387,215.085
				c-2.859,20.047-6.329,40.649-11.721,60.602c6.12,6.893,11.584,14.381,16.296,22.366
				C1430.079,571.425,1462.86,468.289,1451.314,369.477z"/>
			<path style="fill:#EAAB81;" d="M728.786,347.466c-2.94-8.516-6.792-17.551-14.629-21.995
				c-10.766-6.103-25.183-0.596-32.787,9.167c-7.6,9.764-9.926,22.549-11.362,34.839c-11.018,94.292,18.325,192.52,78.695,265.694
				c6.405-8.986,13.821-17.199,22.082-24.477c-3.69-15.996-6.342-32.245-8.609-48.144
				C751.943,490.819,752.691,416.655,728.786,347.466z"/>
			<path style="fill:#EB5D5B;" d="M855.971,1708.557c-0.261,5.346,3.829,10.695,10.632,8.525
				c37.991-12.102,72.973-41.044,96.875-73.273c11.895,27.06,27.696,52.462,43.68,77.394c9.552,14.887,19.368,29.59,29.516,44.082
				c10.187,14.594,20.148,33.023,34.499,44.078c1.002,0.798,2.156,1.338,3.345,1.736c3.68,3.324,9.591,4.516,14.499,0.395
				c31.15-26.302,57.508-56.908,78.809-91.269c9.813-15.861,18.363-32.409,25.797-49.463c4.015-9.322,9.22-19.947,13.197-30.712
				c8.031,12.177,16.432,24.135,24.051,36.566c11.08,18.137,19.294,41.333,33.905,56.799c4.347,4.587,9.59,4.336,13.493,1.662
				c2.974-0.109,5.984-1.446,8.253-4.262c17.138-21.573,25.13-50.405,31.45-76.566c5.056-20.705,8.585-41.841,8.92-63.097
				c0.127-7.399-1.782-15.374-1.493-22.516c0.198-4.824,3.931-13.13,4.576-20.053c0.353-3.79-0.223-7.163-2.809-9.322
				c-6.849-5.717-20.303,5.303-26.101,8.433c-22.854,12.329-46.39,23.532-70.976,32.23
				c-50.073,17.706-102.899,28.256-156.243,29.484c-52.974,1.193-105.313-7.117-154.941-25.183
				c-27.656-10.081-53.753-23.595-79.254-37.939c-23.624-13.288-47.554-27.039-70.793-40.649c-2.156,0.684-2.791,3.384-2.974,5.639
				c-3.12,38.383,20.868,80.881,36.407,114.716C815.859,1655.587,831.024,1686.553,855.971,1708.557z"/>
			<path style="fill:#EB5D5B;" d="M1330.702,1889.108c7.703-6.849,18.833-16.134,27.881-26.611
				c8.923-10.332,15.823-21.823,15.411-33.275c-0.039-1.08-0.141-2.163-0.317-3.24c-0.634-3.948-2.206-7.982-5.265-10.492
				c-0.262-0.216-0.534-0.421-0.818-0.612c-11.391-7.675-48.052,35.761-58.069,43.048c-21.03,15.321-42.96,28.976-66.301,40.539
				c-48.129,23.775-99.582,36.386-153.057,39.636c-54.992,3.324-109.769-5.924-161.292-25.254
				c-25.747-9.661-50.016-22.745-73.065-37.674c-9.623-6.233-54.493-46.282-65.329-40.732c-0.328,0.168-0.627,0.377-0.891,0.631
				c-3.415,3.285-3.902,8.63-3.077,13.299c3.828,21.686,37.713,39.749,54.586,51.086c24.781,16.651,51.319,30.649,78.633,42.656
				c55.246,24.28,115.478,38.482,176.034,37.759c55.498-0.659,112.718-15.977,162.157-41.423c2.221-1.142,4.427-2.305,6.616-3.488
				C1288.176,1922.22,1310.621,1906.962,1330.702,1889.108z"/>
			<path style="fill:#EB5D5B;" d="M970.458,1788.901c-4.676-2.948-9.211-3.282-13.075-1.925c-2.484-0.41-5.27,0.028-8.166,1.628
				c-8.55,4.721-14.149,9.139-17.135,18.952c-2.837,9.312-2.156,19.23-0.363,28.683c2.925,15.437,9.784,33.577,28.644,32.325
				c17.484-1.161,26.263-20.346,27.861-35.653C989.875,1817.08,984.466,1797.73,970.458,1788.901z"/>
			<path style="fill:#EB5D5B;" d="M1213.146,1788.901c-4.675-2.948-9.209-3.282-13.074-1.925c-2.484-0.409-5.269,0.029-8.164,1.629
				c-8.55,4.721-14.149,9.139-17.138,18.952c-2.833,9.312-2.152,19.23-0.36,28.683c2.925,15.437,9.785,33.577,28.645,32.325
				c17.483-1.161,26.259-20.346,27.858-35.653C1232.567,1817.08,1227.158,1797.73,1213.146,1788.901z"/>
			<path style="fill:#EB5D5B;" d="M836.889,1741.298c-0.298-0.151-0.597-0.289-0.893-0.418c-1.982-1.568-4.554-2.61-7.632-2.839
				c-23.235-1.722-22.071,27.872-12.837,41.679c6.221,9.297,21.066,10.871,26.933,0
				C848.716,1768.122,850.922,1748.376,836.889,1741.298z"/>
			<path style="fill:#EB5D5B;" d="M1324.114,1741.298c-0.298-0.151-0.596-0.289-0.894-0.418c-1.981-1.568-4.553-2.61-7.631-2.839
				c-23.235-1.722-22.071,27.872-12.837,41.679c6.221,9.297,21.065,10.871,26.933,0
				C1335.942,1768.122,1338.147,1748.376,1324.114,1741.298z"/>
			<path style="fill:#EAAB81;" d="M892.28,1323.937c10.25-9.717,10.458-25.419,13.606-38.563c3.5-14.608,7.258-28.888,9.633-43.755
				c1.344-8.41-7.654-14.499-14.46-8.417c-12.6,11.252-20.885,24.943-26.577,40.756c-5.127,14.231-11.334,33.772-2.463,47.369
				C876.62,1328.38,886.034,1329.858,892.28,1323.937z"/>
			<path style="fill:#EAAB81;" d="M1091.288,1329.512c2.647-14.412,1.959-28.63,0.413-43.133
				c-1.503-14.086-2.449-29.327-6.891-42.795c-3.073-9.329-15.893-9.342-18.973,0c-4.439,13.468-5.388,28.709-6.888,42.795
				c-1.545,14.502-2.237,28.72,0.41,43.133C1062.259,1345.31,1088.385,1345.32,1091.288,1329.512z"/>
			<path style="fill:#EAAB81;" d="M1226.674,1276.983c4.89,8.71,17.339,10.047,24.262,3.126c2.798-2.798,4.313-6.896,4.404-10.993
				c0.039,0.023,0.079,0.046,0.119,0.069c1.14-9.437-2.858-20.975-5.931-29.873c-2.985-8.65-6.983-19.229-13.839-25.472
				c-5.833-5.308-16.496-3.608-18.422,4.864c-2.092,9.192-0.017,19.85,1.634,29.052
				C1220.637,1257.449,1221.83,1268.358,1226.674,1276.983z"/>
			<path style="fill:#EAAB81;" d="M967.642,1475.782c4.703-10.925,5.406-22.057,6.468-33.825
				c1.009-11.215,1.764-23.239-0.995-34.253c-2.188-8.721-15.317-10.751-19.608-2.562c-5.257,10.037-7.371,21.685-9.019,32.805
				c-1.732,11.686-3.884,22.817-1.866,34.563C944.516,1483.566,963.072,1486.397,967.642,1475.782z"/>
			<path style="fill:#EAAB81;" d="M1177.384,1405.272c1.436,11.813,0.145,26.229,7.466,36.074c5.614,7.553,16.747,8.892,22.106,0
				c14.668-24.336-7.988-64.773-23.112-84.178c-5.438-6.978-15.13,0.822-13.635,7.938
				C1172.999,1378.368,1175.754,1391.808,1177.384,1405.272z"/>
			<path style="fill:#9E383F;" d="M1373.731,666.089c-2.796-7.154-6.15-14.029-10.01-20.57
				c-4.712-7.985-10.176-15.473-16.296-22.366c-26.241-29.559-64.526-48.185-107.162-48.185
				c-73.232,0-133.63,54.956-142.205,125.876h-90.418c-8.12-67.158-62.708-119.999-130.661-125.416
				c-3.808-0.304-7.655-0.461-11.54-0.461c-0.026,0-0.053,0-0.079,0c-36.252,0.02-69.354,13.506-94.574,35.727
				c-8.261,7.278-15.677,15.491-22.082,24.477c-4.757,6.676-8.956,13.777-12.528,21.235c-8.965,18.714-13.987,39.677-13.987,61.813
				c0,33.271,11.343,63.892,30.373,88.209c26.22,33.506,67.034,55.042,112.878,55.042c4.512,0,8.975-0.211,13.381-0.619
				c-16.4,43.223-24.183,88.393-22.686,135.661c0.653,21.715,3.328,43.9,7.986,66.518c2.495,12.033,11.129,22.186,23.055,27.534
				c49.173,22.04,187.993,70.675,338.195,1.083c13.295-6.178,22.078-18.391,23.197-32.12c1.662-20.668,1.553-41.479-0.215-62.437
				c-3.83-45.319-15.386-91.307-33.247-137.822c8.168,1.447,16.576,2.203,25.16,2.203c52.696,0,98.744-28.453,123.623-70.833
				c12.474-21.249,19.628-45.997,19.628-72.417C1383.514,699.826,1380.046,682.245,1373.731,666.089z"/>
			<g>
				<path style="fill:#F1865C;" d="M1248.35,997.088c-3.83-45.319-15.386-91.307-33.247-137.822
					c-60.83-10.778-108.399-59.946-116.776-121.574h-90.957c-8.91,65.552-62.162,117.007-128.551,123.158
					c-16.4,43.223-24.183,88.393-22.686,135.661c0.653,21.715,3.328,43.9,7.986,66.518c2.495,12.033,11.129,22.186,23.055,27.534
					c49.173,22.04,187.993,70.675,338.195,1.083c13.295-6.178,22.078-18.391,23.197-32.12
					C1250.227,1038.857,1250.118,1018.046,1248.35,997.088z M1151.887,982.701c-12.819,44.44-90.558,52.18-105.129,9.08
					c-0.134,0.074-0.272,0.142-0.413,0.202c-14.744,42.894-92.269,35.074-105.066-9.281c-1.34-4.651,0.546-8.829,3.748-11.415
					c4.177-3.374,10.592-4.037,14.996,0.505c12.607,13.005,19.17,28.547,38.581,32.857c14.288,3.174,29.705-4.815,39.156-16.273
					c0.524-0.918,1.017-1.853,1.476-2.804c-2.843-13.197-3.364-27.406-4.261-40.784c-0.365-5.453-1.261-11.489-0.843-17.025
					c-31.198-8.275-72.282-28.107-82.394-58.773c-1.334-4.038,2.953-8.239,6.962-6.962c14.95,4.767,27.025,15.61,40.412,23.537
					c15.765,9.336,32.325,15.589,49.678,21.272c0.091,0.03,0.18,0.061,0.27,0.092c13.427-5.561,27.588-9.486,40.817-15.746
					c14.689-6.951,28.017-16.621,43.073-22.676c5.046-2.029,9.538,4.773,6.895,8.968c-15.799,25.069-53.978,46.631-85.096,50.824
					c0.33,5.395-0.513,11.224-0.866,16.489c-0.796,11.853-1.3,24.427-3.392,36.328c8.133,15.095,26.862,27.377,44.072,23.533
					c19.53-4.359,25.924-19.803,38.584-32.857c4.585-4.729,11.339-3.819,15.487-0.085
					C1151.531,974.314,1153.158,978.297,1151.887,982.701z"/>
				<path style="fill:#4C2E2F;" d="M865.438,861.469c4.512,0,8.975-0.211,13.381-0.619c66.389-6.151,119.64-57.605,128.551-123.158
					h90.957c8.377,61.628,55.946,110.795,116.776,121.574c8.168,1.447,16.576,2.203,25.16,2.203
					c52.696,0,98.744-28.453,123.623-70.833c12.474-21.249,19.628-45.997,19.628-72.417c0-18.393-3.468-35.974-9.783-52.13
					c-2.796-7.154-6.15-14.029-10.01-20.57c-4.712-7.985-10.176-15.473-16.296-22.366c-26.241-29.559-64.526-48.185-107.162-48.185
					c-73.232,0-133.63,54.956-142.205,125.876h-90.418c-8.12-67.158-62.708-119.999-130.661-125.416
					c-3.808-0.304-7.655-0.461-11.54-0.461c-0.026,0-0.053,0-0.079,0c-36.252,0.02-69.354,13.506-94.574,35.727
					c-8.261,7.278-15.677,15.491-22.082,24.477c-4.757,6.676-8.956,13.777-12.528,21.235c-8.965,18.714-13.987,39.677-13.987,61.813
					c0,33.271,11.343,63.892,30.373,88.209C778.78,839.934,819.594,861.469,865.438,861.469z M1240.263,593.769
					c68.732,0,124.451,55.719,124.451,124.449c0,68.732-55.719,124.449-124.451,124.449c-68.732,0-124.447-55.717-124.447-124.449
					C1115.815,649.489,1171.531,593.769,1240.263,593.769z M740.987,718.219c0-68.73,55.718-124.449,124.451-124.449
					c68.728,0,124.447,55.719,124.447,124.449c0,68.732-55.719,124.449-124.447,124.449
					C796.706,842.668,740.987,786.951,740.987,718.219z"/>
				<path style="fill:#CF6970;" d="M785.634,782.06c11.14,7.955,26.435,10.889,38.846,5.113
					c15.97-7.433,22.797-25.894,32.586-40.539c12.861-19.246,32.271-33.101,47.123-50.86c14.848-17.757,25.035-43.062,14.961-63.904
					c-11.581-23.966-49.452-34.38-74.099-29.789c-30.275,5.641-59.876,28.615-74.886,54.964
					c-15.706,27.57-18.62,62.092-7.763,91.904C767.084,761.812,774.491,774.104,785.634,782.06z"/>
				<path style="fill:#CF6970;" d="M912.844,755.963c-8.754,8.797-17.579,18.756-22.138,30.308
					c-6.062,15.372,11.588,29.326,25.621,25.619c20.06-5.296,32.643-25.84,40.472-43.478c2.367-5.333,4.068-12.197,1.634-17.888
					c-0.077-2.264-0.417-4.535-1.165-6.914c-1.926-6.141-8.888-11.154-15.504-8.804c-3.548,1.261-6.422,2.788-9.203,4.741
					C924.924,742.411,919.702,749.07,912.844,755.963z"/>
				<path style="fill:#CF6970;" d="M1160.458,782.06c11.14,7.955,26.435,10.889,38.849,5.113
					c15.966-7.433,22.798-25.894,32.582-40.539c12.861-19.246,32.276-33.101,47.123-50.86
					c14.848-17.757,25.035-43.062,14.965-63.904c-11.581-23.966-49.456-34.38-74.099-29.789
					c-30.275,5.641-59.876,28.615-74.886,54.964c-15.705,27.57-18.624,62.092-7.766,91.904
					C1141.912,761.812,1149.318,774.104,1160.458,782.06z"/>
				<path style="fill:#CF6970;" d="M1287.668,755.963c-8.751,8.797-17.579,18.756-22.134,30.308
					c-6.062,15.372,11.584,29.326,25.617,25.619c20.063-5.296,32.642-25.84,40.472-43.478c2.368-5.333,4.07-12.197,1.635-17.889
					c-0.076-2.263-0.417-4.535-1.162-6.913c-1.927-6.141-8.888-11.154-15.504-8.804c-3.548,1.261-6.421,2.788-9.203,4.741
					C1299.752,742.411,1294.529,749.07,1287.668,755.963z"/>
				<g>
					<path style="fill:#E6764A;" d="M1183.093,927.028c-5.201,2.892-8.853,7.915-12.321,12.755
						c-7.875,11.006-14.627,21.709-22.138,31.923c2.897,2.608,4.524,6.591,3.253,10.995c-12.819,44.44-90.558,52.18-105.129,9.08
						c-0.134,0.074-0.272,0.142-0.413,0.202c-14.744,42.894-92.269,35.074-105.066-9.281c-1.34-4.651,0.546-8.829,3.748-11.415
						c-0.78-1.231-1.553-2.461-2.322-3.68c-6.609-10.515-13.585-20.813-20.917-30.857c-3.253-4.481-6.722-9.033-11.563-11.743
						c-9.901-5.565-23.016-1.627-31.002,6.43c-8.02,8.057-11.852,19.294-14.633,30.278c-2.999,11.708-5.748,23.306-8.458,34.796
						c0.653,21.715,3.328,43.9,7.986,66.518c2.495,12.033,11.129,22.186,23.055,27.534c49.173,22.04,187.993,70.675,338.195,1.083
						c13.295-6.178,22.078-18.391,23.197-32.12c1.662-20.668,1.553-41.479-0.215-62.437c-4.7-17.921-11.707-35.011-22.007-50.368
						C1216.59,932.268,1198.34,918.573,1183.093,927.028z"/>
				</g>
			</g>
		</g>
	</g>
</g>
</svg>
